HIERARCHY
ROOT Hips
{
	OFFSET 0.00000 0.00000 0.00000
	CHANNELS 6 Xposition Yposition Zposition Zrotation Yrotation Xrotation 
	JOINT LHipJoint
	{
		OFFSET 0 0 0
		CHANNELS 3 Zrotation Yrotation Xrotation
		JOINT LeftHip
		{
			OFFSET 1.64549 -1.70879 0.84566
			CHANNELS 3 Zrotation Yrotation Xrotation
			JOINT LeftKnee
			{
				OFFSET 2.24963 -6.18082 0.00000
				CHANNELS 3 Zrotation Yrotation Xrotation
				JOINT LeftAnkle
				{
					OFFSET 2.71775 -7.46697 0.00000
					CHANNELS 3 Zrotation Yrotation Xrotation
					JOINT LeftToe
					{
						OFFSET 0.18768 -0.51564 2.24737
						CHANNELS 3 Zrotation Yrotation Xrotation
						End Site
						{
							OFFSET 0.00000 -0.00000 1.15935
						}
					}
				}
			}
		}
	}
	JOINT RHipJoint
	{
		OFFSET 0 0 0
		CHANNELS 3 Zrotation Yrotation Xrotation
		JOINT RightHip
		{
			OFFSET -1.58830 -1.70879 0.84566
			CHANNELS 3 Zrotation Yrotation Xrotation
			JOINT RightKnee
			{
				OFFSET -2.25006 -6.18201 0.00000
				CHANNELS 3 Zrotation Yrotation Xrotation
				JOINT RightAnkle
				{
					OFFSET -2.72829 -7.49593 0.00000
					CHANNELS 3 Zrotation Yrotation Xrotation
					JOINT RightToe
					{
						OFFSET -0.21541 -0.59185 2.10643
						CHANNELS 3 Zrotation Yrotation Xrotation
						End Site
						{
							OFFSET -0.00000 -0.00000 1.09838
						}
					}
				}
			}
		}
	}
	JOINT lowerback
	{
		OFFSET 0 0 0
		CHANNELS 3 Zrotation Yrotation Xrotation
		JOINT Chest
		{
			OFFSET 0.03142 2.10496 -0.11038
			CHANNELS 3 Zrotation Yrotation Xrotation
			JOINT Chest2
			{
				OFFSET -0.01863 2.10897 -0.06956
				CHANNELS 3 Zrotation Yrotation Xrotation
				JOINT lowerneck
				{
					OFFSET 0 0 0
					CHANNELS 3 Zrotation Yrotation Xrotation
					JOINT Neck
					{
						OFFSET -0.02267 1.73238 0.00451
						CHANNELS 3 Zrotation Yrotation Xrotation
						JOINT Head
						{
							OFFSET -0.05808 1.54724 -0.61749
							CHANNELS 3 Zrotation Yrotation Xrotation
							End Site
							{
								OFFSET -0.01396 1.71468 -0.21082
							}
						}
					}
				}
				JOINT LeftCollar
				{
					OFFSET 0 0 0
					CHANNELS 3 Zrotation Yrotation Xrotation
					JOINT LeftShoulder
					{
						OFFSET 3.44898 0.50298 0.21920
CHANNELS 3 Zrotation Xrotation Yrotation
						JOINT LeftElbow
						{
OFFSET 0 -5.419170 -0.000000
CHANNELS 3 Zrotation Xrotation Yrotation
							JOINT LeftWrist
							{
OFFSET 0 -2.443730 0.000000
CHANNELS 3 Zrotation Xrotation Yrotation
								JOINT lhand
								{
									OFFSET 0 0 0
CHANNELS 3 Zrotation Xrotation Yrotation
									JOINT LFingers
									{
OFFSET 0 -0.727500 0.000000
CHANNELS 3 Zrotation Xrotation Yrotation
										End Site
										{
OFFSET 0 -0.586530 0.000000
										}
									}
								}
								JOINT LThumb
								{
OFFSET 0 0.000000 0.000000
CHANNELS 3 Zrotation Xrotation Yrotation
									End Site
									{
OFFSET 0 -0.595490 0.595490
									}
								}
							}
						}
					}
				}
				JOINT RightCollar
				{
					OFFSET 0 0 0
					CHANNELS 3 Zrotation Yrotation Xrotation
					JOINT RightShoulder
					{
						OFFSET -3.23015 0.55830 0.31051
CHANNELS 3 Zrotation Xrotation Yrotation
						JOINT RightElbow
						{
OFFSET 0 -5.589760 0.000140
CHANNELS 3 Zrotation Xrotation Yrotation
							JOINT RightWrist
							{
OFFSET 0 -2.480600 0.000000
CHANNELS 3 Zrotation Xrotation Yrotation
								JOINT rhand
								{
									OFFSET 0 0 0
CHANNELS 3 Zrotation Xrotation Yrotation
									JOINT RFingers
									{
OFFSET 0 -0.816010 0.000000
CHANNELS 3 Zrotation Xrotation Yrotation
										End Site
										{
OFFSET 0 -0.657890 0.000000
										}
									}
								}
								JOINT RThumb
								{
OFFSET 0 0.000000 0.000000
CHANNELS 3 Zrotation Xrotation Yrotation
									End Site
									{
OFFSET 0 -0.667930 0.667930
									}
								}
							}
						}
					}
				}
			}
		}
	}
}
MOTION
Frames: 6
Frame Time: 0.008333333333333333
1.012500 16.523900 -34.820700 -0.941500 1.233800 12.429500 0.000000 0.000000 0.000000 -21.625800 -16.912100 -18.895500 2.518400 9.871300 28.561100 1.409400 12.063000 -29.665600 0.052500 -1.478700 -4.067000 0.000000 0.000000 0.000000 19.377600 10.509400 -31.444500 -10.013700 -17.417500 59.534000 -0.000000 -0.000000 0.000000 -0.000000 -0.000000 0.000000 -1.586300 1.025900 -4.158000 -1.715400 1.409800 -3.238500 -0.825200 0.716400 -0.989400 -1.941400 -3.430100 -14.557600 6.399400 -7.251700 39.125200 1.886600 -2.385600 17.047700 -0.000000 0.000000 0.000000 4.820700 5.443500 3.913100 32.579800 -43.004600 13.134600 0.973500 0.926900 -20.294200 0.000000 0.000000 0.000000 -7.125000 0.000000 0.000000 -26.418700 48.356800 2.340000 -0.000000 0.000000 0.000000 -5.672400 11.611900 21.307300 -17.941900 -28.082700 -4.521900 -4.551400 -21.080500 -16.217500 0.000000 0.000000 0.000000 7.125000 0.000000 -0.000000 15.427500 14.111400 11.638500
1.031536 16.512040 -34.728509 -1.201529 0.682646 12.491991 0.000000 0.000000 0.000000 -21.542180 -16.893861 -18.642846 2.529064 9.890536 28.622993 1.359567 12.820861 -29.969881 0.091868 -1.954207 -5.379104 0.000000 0.000000 0.000000 19.336039 11.215335 -32.455712 -9.765830 -17.276074 58.702685 0.797030 -16.742013 -12.929684 -0.009967 0.644939 -1.772263 -1.553809 0.925038 -4.383046 -1.279959 1.286314 -2.968704 -0.393048 0.655305 -0.595719 -2.207708 -3.207147 -15.282671 6.033127 -6.657790 38.908526 1.863378 -2.221849 17.056670 0.000000 0.000000 0.000000 4.112174 4.740555 4.584551 33.617823 -43.799537 13.847811 1.534620 1.036034 -20.271875 0.000000 0.000000 0.000000 -7.125000 0.000000 0.000000 -25.906616 48.416002 2.328538 0.000000 0.000000 0.000000 -6.284649 10.942443 22.099745 -17.930837 -28.068547 -4.516717 -4.989732 -20.405960 -16.012586 0.000000 0.000000 0.000000 7.125000 0.000000 0.000000 15.151425 14.286912 11.355349
1.047394 16.507331 -34.620127 -1.367987 0.815892 12.005869 0.000000 0.000000 0.000000 -21.657324 -16.853670 -17.570404 2.530292 9.892785 28.630153 1.495584 12.589870 -30.658676 0.092298 -1.959177 -5.392837 0.000000 0.000000 0.000000 19.513605 11.205780 -32.718357 -9.429257 -17.076141 57.562943 0.563190 -16.291506 -16.306093 -0.061553 -1.590060 4.374239 -1.120016 1.021549 -3.723141 -1.336709 1.383941 -3.161001 -0.706284 0.699402 -1.149965 -2.157345 -3.274045 -14.456570 6.069448 -6.759304 38.589341 1.852671 -2.275039 16.679635 0.000000 0.000000 0.000000 4.442662 5.054772 3.871211 34.446155 -44.412497 14.424440 2.115210 0.653375 -20.543672 0.000000 0.000000 0.000000 -7.125000 0.000000 0.000000 -25.522670 48.743301 2.506901 0.000000 0.000000 0.000000 -5.790138 11.633440 21.483958 -17.923648 -28.059262 -4.513223 -5.344028 -19.328627 -15.762079 0.000000 0.000000 0.000000 7.125000 0.000000 0.000000 14.931274 14.510898 11.104083
1.033046 16.511260 -34.553071 -1.421470 2.162286 11.984582 0.000000 0.000000 0.000000 -21.426840 -16.875873 -17.458658 2.560890 9.947843 28.808100 1.569264 11.568320 -30.314232 0.089627 -1.930985 -5.314988 0.000000 0.000000 0.000000 19.746852 10.605968 -33.799776 -9.107136 -16.876110 56.459883 0.365385 -16.072284 -18.732476 -0.136842 -2.383326 6.566240 -1.426569 0.340893 -3.856803 -0.846266 0.501139 -2.393182 -0.049863 0.260543 -0.297265 -2.221745 -3.118083 -15.922412 5.809136 -6.367769 38.202492 1.791419 -2.134129 16.801145 0.000000 0.000000 0.000000 3.901300 3.260179 4.550478 35.083012 -44.871200 14.871912 2.521924 0.614567 -20.324833 0.000000 0.000000 0.000000 -7.125000 0.000000 0.000000 -25.047680 48.603932 2.363859 0.000000 0.000000 0.000000 -6.232787 9.957801 21.808276 -17.692835 -27.762106 -4.405292 -5.746848 -18.382104 -16.065117 0.000000 0.000000 0.000000 7.125000 0.000000 0.000000 14.652308 14.195110 10.983800
1.062598 16.505775 -34.424334 -1.728057 1.253881 11.559946 0.000000 0.000000 0.000000 -21.610088 -16.899089 -16.283296 2.576690 9.976026 28.899290 1.822285 11.586119 -31.906597 0.021719 -0.944549 -2.596389 0.000000 0.000000 0.000000 19.802775 11.437068 -33.852830 -8.729764 -16.630596 55.150573 0.329953 -16.174980 -19.362501 -0.116979 -2.205020 6.072676 -0.926215 0.775227 -3.798311 -0.881062 1.060902 -2.614992 -0.349257 0.536406 -0.552922 -2.296102 -3.212895 -14.308350 5.939993 -6.493938 37.677060 1.844276 -2.223570 16.139079 0.000000 0.000000 0.000000 4.084742 4.008327 3.726645 36.104065 -45.584408 15.596848 3.514420 0.220628 -20.783264 0.000000 0.000000 0.000000 -7.125000 0.000000 0.000000 -24.378987 49.163210 2.645666 0.000000 0.000000 0.000000 -5.970018 11.139573 21.641700 -17.811759 -27.915384 -4.460735 -6.040973 -17.467748 -16.206725 0.000000 0.000000 0.000000 7.125000 0.000000 0.000000 14.452960 14.041141 10.872885
1.030748 16.505602 -34.417585 -1.793460 2.561291 12.833185 0.000000 0.000000 0.000000 -20.815828 -17.428910 -17.925941 2.589093 9.998131 28.970806 1.640740 11.251291 -30.527383 0.034468 -1.198561 -3.295309 0.000000 0.000000 0.000000 19.648039 11.693145 -36.512356 -8.359107 -16.377049 53.846050 0.323797 -16.620264 -20.191957 -0.159474 -2.572321 7.090108 -1.305249 0.189840 -3.415387 -0.472250 0.281562 -2.951932 0.254184 0.158579 -1.116394 -2.292773 -3.236521 -16.245045 5.644252 -6.442503 37.942179 1.704781 -2.195792 16.740831 0.000000 0.000000 0.000000 3.895555 3.037361 3.811371 36.759702 -46.028424 16.066885 4.386324 -0.056879 -21.300426 0.000000 0.000000 0.000000 -7.125000 0.000000 0.000000 -23.843932 49.763832 2.949703 0.000000 0.000000 0.000000 -6.188725 10.341623 21.781291 -17.655776 -27.714054 -4.387949 -5.944308 -16.478586 -16.388545 0.000000 0.000000 0.000000 7.125000 0.000000 0.000000 14.508708 13.869971 10.972287
